# xmcd
#
# Track frame offsets:
# 150
# 15997
# 32253
# 50766
# 67689
# 81263
# 101138
# 117873
# 135777
# 151873
# 167968
#
# Disc length: 2485 seconds
#
#
# Revision: 0
# Processed by: cddbd v1.5.2PL0 Copyright (c) Steve Scherf et al.
# Submitted via: FreeRIP 2.951 
#
DISCID=7909b30b
DTITLE=Chuck Wicks - Starting Now
DYEAR=2008
DGENRE=Country
TTITLE0=All I Ever Wanted
TTITLE1=Good Time Comin' On
TTITLE2=Stealing Cinderella
TTITLE3=If We Loved
TTITLE4=When You're Single
TTITLE5=Starting Now
TTITLE6=The Easy Part
TTITLE7=What If You Stay
TTITLE8=She's Gonna Hurt Somebody
TTITLE9=Mine All Mine
TTITLE10=Man of the House
EXTD=
EXTT0=
EXTT1=
EXTT2=
EXTT3=
EXTT4=
EXTT5=
EXTT6=
EXTT7=
EXTT8=
EXTT9=
EXTT10=
PLAYORDER=
